<svg width="39" height="39" viewBox="0 0 39 39" fill="none" xmlns="http://www.w3.org/2000/svg">
<g clip-path="url(#clip0)">
<path d="M36.8847 1.75195H2.11526C0.948875 1.75195 0 2.70083 0 3.86721V11.5261C0 11.8444 0.25827 12.103 0.576943 12.103C0.895615 12.103 1.15389 11.8444 1.15389 11.5261V3.86721C1.15389 3.33728 1.58533 2.90584 2.11526 2.90584H36.8847C37.415 2.90584 37.8461 3.33728 37.8461 3.86721V26.9443C37.8461 27.4745 37.4147 27.9057 36.8847 27.9057H24.9403C24.9793 27.6421 24.9998 27.3725 24.9998 27.0978C24.9998 26.8235 24.9793 26.5539 24.9403 26.2903H32.423C32.7417 26.2903 33 26.032 33 25.7134C33 24.25 34.1905 23.0595 35.6538 23.0595C35.9725 23.0595 36.2307 22.8013 36.2307 22.4826V12.6686C36.2307 12.35 35.9725 12.0917 35.6538 12.0917C35.3351 12.0917 35.0769 12.35 35.0769 12.6686V21.9494C33.4383 22.1996 32.1398 23.4978 31.8898 25.1364H24.6371C23.8454 23.07 21.8417 21.598 19.5 21.598C17.1583 21.598 15.1546 23.07 14.3629 25.1364H7.11017C6.86023 23.4978 5.56174 22.1996 3.92315 21.9494V8.86212C5.56174 8.61189 6.86023 7.31369 7.11017 5.6751H31.8898C32.1401 7.31369 33.4383 8.61189 35.0769 8.86212V9.97792C35.0769 10.2966 35.3354 10.5549 35.6538 10.5549C35.9725 10.5549 36.2307 10.2966 36.2307 9.97792V8.32892C36.2307 8.01025 35.9725 7.75198 35.6538 7.75198C34.1905 7.75198 33 6.56149 33 5.09816C33 4.77949 32.7417 4.52122 32.423 4.52122H6.57697C6.25829 4.52122 6.00002 4.77949 6.00002 5.09816C6.00002 6.56149 4.80954 7.75198 3.34621 7.75198C3.02753 7.75198 2.76926 8.01025 2.76926 8.32892V22.4826C2.76926 22.8013 3.02753 23.0595 3.34621 23.0595C4.80954 23.0595 6.00002 24.25 6.00002 25.7134C6.00002 26.032 6.25829 26.2903 6.57697 26.2903H14.0597C14.0207 26.5542 14.0002 26.8238 14.0002 27.0981C14.0002 27.3725 14.0207 27.6421 14.0597 27.906H2.11526C1.58503 27.906 1.15389 27.4745 1.15389 26.9443V14.2087C1.15389 13.8901 0.895615 13.6318 0.576943 13.6318C0.25827 13.6318 0 13.8901 0 14.2087V26.9443C0 28.1107 0.948875 29.0596 2.11526 29.0596H14.3629C14.5575 29.5678 14.8255 30.0397 15.1537 30.4628V36.6366C15.1537 36.8288 15.2495 37.0082 15.409 37.1153C15.5685 37.2225 15.7709 37.2433 15.9488 37.1707L19.5 35.721L23.0512 37.1707C23.1214 37.1992 23.1955 37.2135 23.269 37.2135C23.3821 37.2135 23.4946 37.1802 23.591 37.1153C23.7505 37.0082 23.8463 36.8288 23.8463 36.6366V34.9864C23.8463 34.6677 23.5877 34.4095 23.2693 34.4095C22.9506 34.4095 22.6924 34.6677 22.6924 34.9864V35.7779L19.7181 34.5639C19.5783 34.507 19.4217 34.507 19.2819 34.5639L16.3076 35.7779V31.5726C17.2086 32.2171 18.3104 32.598 19.5 32.598C20.6896 32.598 21.7914 32.2171 22.6924 31.5726V32.2903C22.6924 32.609 22.9506 32.8673 23.2693 32.8673C23.5877 32.8673 23.8463 32.609 23.8463 32.2903V30.4628C24.1745 30.0397 24.4425 29.5678 24.6371 29.0596H36.8847C38.0511 29.0596 39 28.1107 39 26.9443V3.86721C39 2.70083 38.0511 1.75195 36.8847 1.75195V1.75195ZM19.5 31.4441C17.1036 31.4441 15.1537 29.4946 15.1537 27.0981C15.1537 24.7017 17.1036 22.7519 19.5 22.7519C21.8964 22.7519 23.8463 24.7017 23.8463 27.0981C23.8463 29.4946 21.8964 31.4441 19.5 31.4441Z" fill="white"/>
<path d="M24.577 9.36739C24.8956 9.36739 25.1539 9.10912 25.1539 8.79044C25.1539 8.47177 24.8956 8.2135 24.577 8.2135H14.4229C14.1042 8.2135 13.8459 8.47177 13.8459 8.79044C13.8459 9.10912 14.1042 9.36739 14.4229 9.36739H24.577Z" fill="white"/>
<path d="M28.4232 11.2904H10.5769C10.2583 11.2904 10 11.5487 10 11.8673C10 12.186 10.2583 12.4443 10.5769 12.4443H28.4232C28.7418 12.4443 29.0001 12.186 29.0001 11.8673C29.0001 11.5487 28.7418 11.2904 28.4232 11.2904Z" fill="white"/>
<path d="M28.4232 14.3673H10.5769C10.2583 14.3673 10 14.6256 10 14.9443C10 15.2629 10.2583 15.5212 10.5769 15.5212H28.4232C28.7418 15.5212 29.0001 15.2629 29.0001 14.9443C29.0001 14.6256 28.7418 14.3673 28.4232 14.3673Z" fill="white"/>
<path d="M28.4231 17.9058H25.6538C25.3352 17.9058 25.0769 18.164 25.0769 18.4827C25.0769 18.8014 25.3352 19.0597 25.6538 19.0597H28.4231C28.7418 19.0597 29 18.8014 29 18.4827C29 18.164 28.7418 17.9058 28.4231 17.9058Z" fill="white"/>
<path d="M10.5769 17.9058C10.2583 17.9058 10 18.164 10 18.4827C10 18.8014 10.2583 19.0597 10.5769 19.0597H13.3462C13.6649 19.0597 13.9231 18.8014 13.9231 18.4827C13.9231 18.164 13.6649 17.9058 13.3462 17.9058H10.5769Z" fill="white"/>
<path d="M19.5 24.0596C17.8245 24.0596 16.4614 25.4226 16.4614 27.0981C16.4614 28.7736 17.8245 30.1367 19.5 30.1367C21.1755 30.1367 22.5385 28.7736 22.5385 27.0981C22.5385 25.4226 21.1755 24.0596 19.5 24.0596ZM19.5 28.9828C18.4606 28.9828 17.6153 28.1371 17.6153 27.0981C17.6153 26.0588 18.4606 25.2135 19.5 25.2135C20.5393 25.2135 21.3846 26.0588 21.3846 27.0981C21.3846 28.1371 20.5393 28.9828 19.5 28.9828Z" fill="white"/>
<path d="M17.5386 18.4827C17.5386 19.5642 18.4184 20.4441 19.5 20.4441C20.5816 20.4441 21.4614 19.5642 21.4614 18.4827C21.4614 17.4011 20.5816 16.5212 19.5 16.5212C18.4184 16.5212 17.5386 17.4011 17.5386 18.4827ZM20.3078 18.4827C20.3078 18.9281 19.9454 19.2905 19.5 19.2905C19.0546 19.2905 18.6922 18.9281 18.6922 18.4827C18.6922 18.0372 19.0546 17.6748 19.5 17.6748C19.9454 17.6748 20.3078 18.0372 20.3078 18.4827Z" fill="white"/>
</g>
<defs>
<clipPath id="clip0">
<rect width="39" height="39" fill="white"/>
</clipPath>
</defs>
</svg>
