<svg width="37" height="37" viewBox="0 0 37 37" fill="none" xmlns="http://www.w3.org/2000/svg">
<g clip-path="url(#clip0)">
<path d="M8.01674 30.8333C6.99502 30.8333 6.16675 31.6615 6.16675 32.6833C6.16675 33.705 6.99502 34.5332 8.01674 34.5332C9.03847 34.5332 9.86674 33.705 9.86674 32.6833C9.86674 31.6615 9.03847 30.8333 8.01674 30.8333ZM8.01674 33.2999C7.67617 33.2999 7.40008 33.0238 7.40008 32.6833C7.40008 32.3427 7.67617 32.0666 8.01674 32.0666C8.35732 32.0666 8.63341 32.3427 8.63341 32.6833C8.63341 33.0238 8.35732 33.2999 8.01674 33.2999Z" fill="white"/>
<path d="M28.3666 30.8333C27.3449 30.8333 26.5166 31.6615 26.5166 32.6833C26.5166 33.705 27.3449 34.5332 28.3666 34.5332C29.3883 34.5332 30.2166 33.705 30.2166 32.6833C30.2166 31.6615 29.3883 30.8333 28.3666 30.8333ZM28.3666 33.2999C28.026 33.2999 27.7499 33.0238 27.7499 32.6833C27.7499 32.3427 28.026 32.0666 28.3666 32.0666C28.7072 32.0666 28.9833 32.3427 28.9833 32.6833C28.9833 33.0238 28.7072 33.2999 28.3666 33.2999Z" fill="white"/>
<path d="M32.0667 14.8047H30.5867C31.5817 9.90444 29.5196 4.88828 25.3657 2.10474C21.2118 -0.678795 15.7883 -0.678795 11.6344 2.10474C7.48045 4.88828 5.41829 9.90444 6.41333 14.8047H3.7C1.65739 14.8068 0.00203957 16.4621 1.46413e-08 18.5047V29.6047C-8.79837e-05 30.5947 0.396497 31.5433 1.10109 32.2386C1.80568 32.934 2.75951 33.318 3.74933 33.3048C4.05415 35.4272 5.87246 37.003 8.01667 37.003C10.1609 37.003 11.9792 35.4272 12.284 33.3048H24.0993C24.4042 35.4272 26.2225 37.003 28.3667 37.003C30.5109 37.003 32.3292 35.4272 32.634 33.3048H35.15C36.1717 33.3048 37 32.4765 37 31.4548V19.7381C36.9969 17.0147 34.79 14.8078 32.0667 14.8047ZM23.8403 23.4381C25.3287 22.7192 26.658 21.7096 27.75 20.4688V23.4381H23.8403ZM28.9833 18.8026C29.045 18.7039 29.1067 18.6053 29.1646 18.5047H31.45C32.1312 18.5047 32.6833 19.0569 32.6833 19.7381V25.2881H30.2167C29.5355 25.2881 28.9833 24.7359 28.9833 24.0547V18.8026ZM18.5 1.23806C24.6304 1.23806 29.6 6.2077 29.6 12.3381C29.6 18.4684 24.6304 23.4381 18.5 23.4381C12.3696 23.4381 7.4 18.4684 7.4 12.3381C7.4068 6.21052 12.3725 1.24486 18.5 1.23806ZM6.16667 23.4381C5.14494 23.4381 4.31667 22.6098 4.31667 21.5881V18.5047H7.83537C8.07776 18.9205 8.3442 19.3218 8.63333 19.7066V23.4381H6.16667ZM9.86667 21.1311C10.8312 22.0745 11.9436 22.8537 13.1597 23.4381H9.86667V21.1311ZM8.01667 35.7714C6.31379 35.7714 4.93333 34.391 4.93333 32.6881C4.93333 30.9852 6.31379 29.6047 8.01667 29.6047C9.71954 29.6047 11.1 30.9852 11.1 32.6881C11.098 34.3901 9.7187 35.7694 8.01667 35.7714ZM28.3667 35.7714C26.6638 35.7714 25.2833 34.391 25.2833 32.6881C25.2833 30.9852 26.6638 29.6047 28.3667 29.6047C30.0695 29.6047 31.45 30.9852 31.45 32.6881C31.448 34.3901 30.0687 35.7694 28.3667 35.7714ZM35.7667 29.6047H34.5333V28.3714H35.7667V29.6047ZM35.7667 27.1381H34.5333C33.8522 27.1381 33.3 27.6903 33.3 28.3714V29.6047C33.3 30.2859 33.8522 30.8381 34.5333 30.8381H35.7667V31.4548C35.7667 31.7953 35.4906 32.0714 35.15 32.0714H32.634C32.3292 29.949 30.5109 28.3732 28.3667 28.3732C26.2225 28.3732 24.4042 29.949 24.0993 32.0714H12.284C11.9792 29.949 10.1609 28.3732 8.01667 28.3732C5.87246 28.3732 4.05415 29.949 3.74933 32.0714C3.08663 32.0847 2.44647 31.8307 1.97316 31.3666C1.49984 30.9026 1.2332 30.2676 1.23333 29.6047V18.5047C1.23333 17.1424 2.3377 16.0381 3.7 16.0381H6.73523C6.8691 16.4573 7.02555 16.869 7.2039 17.2714H4.31667C3.63552 17.2714 3.08333 17.8236 3.08333 18.5047V21.5881C3.08537 23.2901 4.46463 24.6694 6.16667 24.6714H27.8376C28.1179 25.7572 29.0953 26.5172 30.2167 26.5214H32.6833C33.3645 26.5214 33.9167 25.9692 33.9167 25.2881V19.7381C33.9167 18.3758 32.8123 17.2714 31.45 17.2714H29.7961C29.9744 16.869 30.1309 16.4573 30.2648 16.0381H32.0667C34.1093 16.0401 35.7646 17.6955 35.7667 19.7381V27.1381Z" fill="white"/>
<path d="M25.9001 25.9H3.08346C2.74289 25.9 2.4668 26.1761 2.4668 26.5167C2.4668 26.8573 2.74289 27.1334 3.08346 27.1334H25.9001C26.2407 27.1334 26.5168 26.8573 26.5168 26.5167C26.5168 26.1761 26.2407 25.9 25.9001 25.9Z" fill="white"/>
<path d="M18.4999 10.4833C19.5216 10.4833 20.3499 9.65505 20.3499 8.63332C20.3499 7.6116 19.5216 6.78333 18.4999 6.78333C17.4782 6.78333 16.6499 7.6116 16.6499 8.63332C16.6499 9.65505 17.4782 10.4833 18.4999 10.4833ZM18.4999 8.01666C18.8405 8.01666 19.1166 8.29275 19.1166 8.63332C19.1166 8.9739 18.8405 9.24999 18.4999 9.24999C18.1593 9.24999 17.8832 8.9739 17.8832 8.63332C17.8832 8.29275 18.1593 8.01666 18.4999 8.01666Z" fill="white"/>
<path d="M13.5668 9.24993C14.5885 9.24993 15.4168 8.42165 15.4168 7.39993C15.4168 6.3782 14.5885 5.54993 13.5668 5.54993C12.5451 5.54993 11.7168 6.3782 11.7168 7.39993C11.7168 8.42165 12.5451 9.24993 13.5668 9.24993ZM13.5668 6.78326C13.9074 6.78326 14.1835 7.05935 14.1835 7.39993C14.1835 7.7405 13.9074 8.01659 13.5668 8.01659C13.2262 8.01659 12.9501 7.7405 12.9501 7.39993C12.9501 7.05935 13.2262 6.78326 13.5668 6.78326Z" fill="white"/>
<path d="M14.8002 16.7184C14.7912 17.3519 15.297 17.8731 15.9305 17.8832H21.0698C21.7034 17.8731 22.2091 17.3519 22.2002 16.7184C22.2002 16.6191 21.7821 16.6499 26.005 16.6499C26.6381 16.6388 27.1428 16.1175 27.1335 15.4844V14.3867C27.1335 10.5338 22.3414 9.0125 20.3428 12.2401C19.2136 11.542 17.7868 11.542 16.6576 12.2401C14.6583 9.01065 9.86683 10.5344 9.86683 14.3867V15.4844C9.85755 16.1175 10.3623 16.6388 10.9953 16.6499C15.2232 16.6499 14.8002 16.6191 14.8002 16.7184ZM25.9002 14.3867V15.4166H22.1903C22.1518 14.5601 21.8392 13.7387 21.2986 13.0732C22.5369 10.683 25.9002 11.6623 25.9002 14.3867ZM20.9668 15.6201V16.6499H16.0335V15.6219C15.9806 14.2043 17.0829 13.0103 18.5002 12.9499C19.9174 13.0103 21.0197 14.2043 20.9668 15.6219V15.6201ZM11.1002 14.3867C11.1002 11.6993 14.4505 10.6571 15.7017 13.0751C15.1615 13.74 14.8489 14.5608 14.81 15.4166H11.1002V14.3867Z" fill="white"/>
<path d="M23.4333 9.24993C24.455 9.24993 25.2833 8.42165 25.2833 7.39993C25.2833 6.3782 24.455 5.54993 23.4333 5.54993C22.4115 5.54993 21.5833 6.3782 21.5833 7.39993C21.5833 8.42165 22.4115 9.24993 23.4333 9.24993ZM23.4333 6.78326C23.7738 6.78326 24.0499 7.05935 24.0499 7.39993C24.0499 7.7405 23.7738 8.01659 23.4333 8.01659C23.0927 8.01659 22.8166 7.7405 22.8166 7.39993C22.8166 7.05935 23.0927 6.78326 23.4333 6.78326Z" fill="white"/>
</g>
<defs>
<clipPath id="clip0">
<rect width="37" height="37" fill="white"/>
</clipPath>
</defs>
</svg>
