<svg width="20" height="20" viewBox="0 0 20 20" fill="none" xmlns="http://www.w3.org/2000/svg">
<g clip-path="url(#clip0)">
<path d="M5.67651 11.6142H7.77485V19.3742C7.77485 19.7192 8.05401 19.9992 8.39985 19.9992L11.739 20C12.0848 20 12.364 19.7192 12.364 19.375V11.615H14.3532C14.6682 11.615 14.934 11.38 14.9732 11.0675L15.3882 7.73417C15.4348 7.3625 15.144 7.03167 14.7682 7.03167H12.364C12.4582 4.9725 12.0015 4.36333 13.3407 4.36333C14.2473 4.255 15.6773 4.71417 15.6773 3.73833V0.7575C15.6773 0.445 15.4465 0.180833 15.1373 0.138333C14.8757 0.1025 13.8415 0 12.559 0C6.71735 0 7.91985 6.47667 7.77568 7.03083H5.67651C5.33151 7.03083 5.05151 7.31083 5.05151 7.65583V10.9892C5.05151 11.3342 5.33151 11.6142 5.67651 11.6142ZM6.30151 8.28167H8.39985C8.74485 8.28167 9.02485 8.00167 9.02485 7.65667V5.03083C9.02485 2.62833 10.3123 1.25083 12.5582 1.25083C13.2898 1.25083 13.9632 1.28667 14.4265 1.32333V3.11417C14.0915 3.285 11.1132 2.3775 11.1132 5.36167V7.6575C11.1132 8.0025 11.3932 8.2825 11.7382 8.2825H14.0598L13.7998 10.3658H11.7382C11.3932 10.3658 11.1132 10.6458 11.1132 10.9908V18.75H9.02568V10.99C9.02568 10.645 8.74568 10.365 8.40068 10.365H6.30151V8.28167Z" fill="white"/>
</g>
<defs>
<clipPath id="clip0">
<rect width="20" height="20" fill="white"/>
</clipPath>
</defs>
</svg>
