<svg width="208" height="105" viewBox="0 0 208 105" fill="none" xmlns="http://www.w3.org/2000/svg">
<path d="M15.1654 29.9487V31.5633H17.7026V32.1648H14.4888V27.321H17.5969V27.9173H15.1654V29.3683H17.4542V29.9487H15.1654Z" fill="white"/>
<path d="M19.5369 32.1648V27.321H21.2019C21.5244 27.321 21.8362 27.3685 22.1375 27.4635C22.4388 27.5585 22.7137 27.6957 22.9674 27.8856C23.2211 28.0703 23.4273 28.3288 23.5859 28.6507C23.7391 28.9726 23.8184 29.3366 23.8184 29.7482C23.8184 30.1439 23.7391 30.5027 23.5859 30.8193C23.4326 31.1359 23.2264 31.3944 22.9727 31.5844C22.719 31.7743 22.4388 31.9168 22.1375 32.017C21.8362 32.1173 21.5244 32.17 21.2019 32.17H19.5369V32.1648ZM20.2187 27.912V31.5685H21.0698C21.6671 31.5685 22.1534 31.405 22.534 31.0778C22.9093 30.7507 23.0996 30.3075 23.0996 29.7429C23.0996 29.1572 22.9145 28.7087 22.5392 28.3869C22.164 28.0703 21.6777 27.9067 21.0751 27.9067H20.2187V27.912Z" fill="white"/>
<path d="M28.9299 31.7322C28.6074 32.1015 28.137 32.2915 27.5344 32.2915C26.9265 32.2915 26.4613 32.1068 26.1389 31.7322C25.8165 31.3628 25.6526 30.9091 25.6526 30.3762V27.3264H26.3292V30.334C26.3292 30.7139 26.4243 31.0304 26.6199 31.289C26.8155 31.5475 27.1168 31.6794 27.5344 31.6794C27.952 31.6794 28.2533 31.5475 28.4488 31.289C28.6444 31.0304 28.7396 30.7086 28.7396 30.334V27.3264H29.4162V30.3762C29.4162 30.9091 29.2576 31.3576 28.9299 31.7322Z" fill="white"/>
<path d="M35.1091 31.046L35.6483 31.4154C35.2201 32.0011 34.6017 32.2913 33.7982 32.2913C33.0529 32.2913 32.4397 32.0538 31.964 31.5737C31.4883 31.0935 31.2451 30.4815 31.2451 29.7428C31.2451 28.9935 31.4883 28.3867 31.9799 27.9119C32.4662 27.4423 33.0846 27.2048 33.8299 27.2048C34.1788 27.2048 34.5118 27.2734 34.829 27.4053C35.1461 27.5372 35.3946 27.7219 35.569 27.9594L35.0351 28.3709C34.9188 28.2021 34.7497 28.0649 34.5277 27.9594C34.3109 27.8538 34.0731 27.8011 33.8299 27.8011C33.2802 27.8011 32.8362 27.9857 32.4979 28.3604C32.1596 28.735 31.9851 29.194 31.9851 29.7428C31.9851 30.2968 32.1543 30.7611 32.4873 31.1357C32.8203 31.5051 33.259 31.695 33.8088 31.695C34.3797 31.6845 34.8131 31.4734 35.1091 31.046Z" fill="white"/>
<path d="M37.9634 30.9777L37.4771 32.1701H36.7212L38.825 27.3264H39.4434L41.5261 32.1701H40.7543L40.2627 30.9777H37.9634ZM39.1104 28.1126L38.2012 30.3814H40.0143L39.1104 28.1126Z" fill="white"/>
<path d="M44.3647 27.9173V32.1648H43.6881V27.9173H42.134V27.321H45.924V27.9173H44.3647Z" fill="white"/>
<path d="M48.1756 27.321V32.1648H47.499V27.321H48.1756Z" fill="white"/>
<path d="M55.1795 29.7376C55.1795 30.4816 54.9363 31.0937 54.45 31.5686C53.9637 32.0487 53.3506 32.2861 52.6053 32.2861C51.8652 32.2861 51.2521 32.0487 50.771 31.5686C50.2847 31.0884 50.0469 30.4763 50.0469 29.7376C50.0469 28.9884 50.29 28.3816 50.771 27.9067C51.2521 27.4371 51.8652 27.1997 52.6105 27.1997C53.3559 27.1997 53.969 27.4371 54.4553 27.9067C54.9363 28.3816 55.1795 28.9884 55.1795 29.7376ZM54.4448 29.7376C54.4448 29.1889 54.2756 28.7299 53.9373 28.3552C53.599 27.9806 53.155 27.7959 52.6 27.7959C52.0555 27.7959 51.6168 27.9806 51.2785 28.3552C50.9402 28.7299 50.771 29.1889 50.771 29.7376C50.771 30.2917 50.9402 30.7507 51.2785 31.1201C51.6168 31.4894 52.0555 31.6794 52.6 31.6794C53.155 31.6794 53.599 31.4947 53.9373 31.1201C54.2756 30.7507 54.4448 30.2917 54.4448 29.7376Z" fill="white"/>
<path d="M57.9177 27.321L60.4549 31.1939H60.4708V27.321H61.1474V32.1648H60.291L57.7274 28.2128H57.7115V32.1648H57.0349V27.321H57.9177Z" fill="white"/>
<path d="M66.4597 30.9777L65.9734 32.1701H65.2175L67.3213 27.3264H67.9398L70.0224 32.1701H69.2559L68.7644 30.9777H66.4597ZM67.612 28.1126L66.7029 30.3814H68.5159L67.612 28.1126Z" fill="white"/>
<path d="M75.5882 27.8276L75.1178 28.3183C74.8006 27.9648 74.3619 27.7907 73.8016 27.7907C73.2466 27.7907 72.8026 27.9753 72.4643 28.35C72.126 28.7246 71.9515 29.1836 71.9515 29.7324C71.9515 30.2864 72.1207 30.7507 72.4643 31.1201C72.8026 31.4894 73.2571 31.6741 73.8227 31.6741C74.2773 31.6741 74.6579 31.5949 74.9539 31.4366V30.0912H73.8809V29.516H75.6305V31.864C75.1072 32.149 74.4993 32.2861 73.8069 32.2861C73.051 32.2861 72.4273 32.0487 71.941 31.5738C71.4547 31.099 71.2168 30.4869 71.2168 29.7376C71.2168 28.9884 71.4599 28.3816 71.9515 27.9067C72.4378 27.4371 73.0563 27.1997 73.8016 27.1997C74.5575 27.1997 75.1548 27.4108 75.5882 27.8276Z" fill="white"/>
<path d="M78.3953 29.9487V31.5633H80.9326V32.1648H77.7188V27.321H80.8269V27.9173H78.3953V29.3683H80.6841V29.9487H78.3953Z" fill="white"/>
<path d="M83.6496 27.321L86.1868 31.1939H86.2027V27.321H86.8793V32.1648H86.023L83.4593 28.2128H83.4434V32.1648H82.7668V27.321H83.6496Z" fill="white"/>
<path d="M92.6037 31.046L93.1429 31.4154C92.7147 32.0011 92.0963 32.2913 91.2928 32.2913C90.5475 32.2913 89.9344 32.0538 89.4586 31.5737C88.9776 31.0935 88.7397 30.4815 88.7397 29.7428C88.7397 28.9935 88.9829 28.3867 89.4745 27.9119C89.9608 27.4423 90.5792 27.2048 91.3245 27.2048C91.6734 27.2048 92.0064 27.2734 92.3236 27.4053C92.6407 27.5372 92.8892 27.7219 93.0636 27.9594L92.5297 28.3709C92.4134 28.2021 92.2443 28.0649 92.0223 27.9594C91.8056 27.8538 91.5677 27.8011 91.3245 27.8011C90.7748 27.8011 90.3308 27.9857 89.9925 28.3604C89.6542 28.735 89.4798 29.194 89.4798 29.7428C89.4798 30.2968 89.6489 30.7611 89.9819 31.1357C90.3149 31.5051 90.7537 31.695 91.3034 31.695C91.8743 31.6845 92.3077 31.4734 92.6037 31.046Z" fill="white"/>
<path d="M96.5786 30.0754V32.1701H95.8914V30.0754L94.0784 27.3264H94.9135L96.2561 29.5161L97.604 27.3264H98.3916L96.5786 30.0754Z" fill="white"/>
<path d="M88.4858 72.7494C88.7766 72.7019 89.1624 72.6597 89.6487 72.6597C90.246 72.6597 90.6848 72.7969 90.9649 73.0501C91.2239 73.2717 91.3772 73.6147 91.3772 74.0315C91.3772 74.4536 91.2504 74.7913 91.0178 75.034C90.6953 75.377 90.1773 75.5459 89.5853 75.5459C89.4056 75.5459 89.2364 75.5406 89.099 75.5036V77.382H88.4858V72.7494ZM89.0937 75.0077C89.2259 75.0446 89.395 75.0552 89.5959 75.0552C90.3253 75.0552 90.7746 74.7016 90.7746 74.0526C90.7746 73.4353 90.3359 73.1345 89.6699 73.1345C89.4056 73.1345 89.2047 73.1557 89.099 73.182V75.0077H89.0937Z" fill="white"/>
<path d="M97.1441 74.9879C97.1441 76.6024 96.1609 77.4572 94.9663 77.4572C93.7294 77.4572 92.8572 76.4969 92.8572 75.0828C92.8572 73.5949 93.7822 72.624 95.035 72.624C96.3194 72.6188 97.1441 73.6002 97.1441 74.9879ZM93.5073 75.067C93.5073 76.0695 94.0518 76.9665 95.0033 76.9665C95.9653 76.9665 96.5045 76.0853 96.5045 75.0195C96.5045 74.0909 96.0182 73.1147 95.0085 73.1147C94.0042 73.1147 93.5073 74.0381 93.5073 75.067Z" fill="white"/>
<path d="M98.8777 72.698H99.4856V76.8769H101.489V77.3834H98.8777V72.698Z" fill="white"/>
<path d="M103.72 72.698V77.3834H103.112V72.698H103.72Z" fill="white"/>
<path d="M105.639 76.6446C105.908 76.8135 106.305 76.9506 106.722 76.9506C107.341 76.9506 107.705 76.6235 107.705 76.1539C107.705 75.716 107.457 75.468 106.823 75.2253C106.056 74.9562 105.586 74.5605 105.586 73.8956C105.586 73.1675 106.194 72.624 107.103 72.624C107.584 72.624 107.933 72.7348 108.139 72.8509L107.97 73.3469C107.816 73.2625 107.504 73.1253 107.076 73.1253C106.437 73.1253 106.194 73.5052 106.194 73.827C106.194 74.265 106.479 74.4813 107.124 74.7293C107.917 75.0353 108.324 75.4152 108.324 76.1064C108.324 76.8293 107.79 77.4519 106.68 77.4519C106.225 77.4519 105.734 77.32 105.48 77.1511L105.639 76.6446Z" fill="white"/>
<path d="M110.708 72.698V74.6555H112.975V72.698H113.589V77.3834H112.975V75.1884H110.708V77.3834H110.1V72.698H110.708Z" fill="white"/>
<path d="M118.013 72.698H118.621V76.8769H120.624V77.3834H118.013V72.698Z" fill="white"/>
<path d="M123.003 75.9062L122.516 77.3783H121.887L123.484 72.6929H124.213L125.815 77.3783H125.17L124.668 75.9062H123.003ZM124.541 75.4313L124.081 74.0858C123.975 73.7798 123.907 73.5002 123.838 73.2311H123.822C123.753 73.5107 123.674 73.7956 123.584 74.0806L123.124 75.4366H124.541V75.4313Z" fill="white"/>
<path d="M127.448 77.3783V72.6929H128.109L129.61 75.062C129.959 75.6107 130.228 76.1067 130.45 76.5816L130.466 76.5763C130.408 75.9484 130.398 75.3786 130.398 74.6504V72.6929H130.968V77.3783H130.355L128.865 75.0039C128.537 74.4816 128.225 73.9487 127.987 73.4421L127.966 73.4474C128.003 74.0384 128.014 74.6029 128.014 75.3786V77.3783H127.448Z" fill="white"/>
<path d="M136.55 77.1725C136.281 77.2675 135.742 77.431 135.107 77.431C134.399 77.431 133.812 77.2516 133.352 76.8137C132.951 76.4233 132.697 75.8006 132.697 75.0672C132.702 73.669 133.664 72.6506 135.24 72.6506C135.784 72.6506 136.207 72.7667 136.408 72.867L136.26 73.3629C136.011 73.2521 135.694 73.1624 135.224 73.1624C134.082 73.1624 133.337 73.8695 133.337 75.0461C133.337 76.2333 134.055 76.9351 135.144 76.9351C135.541 76.9351 135.81 76.877 135.953 76.8084V75.4102H135.002V74.9248H136.545V77.1725H136.55Z" fill="white"/>
<path d="M139.03 72.698V75.4681C139.03 76.5181 139.495 76.9613 140.124 76.9613C140.822 76.9613 141.266 76.5023 141.266 75.4681V72.698H141.879V75.4312C141.879 76.8716 141.118 77.4626 140.103 77.4626C139.141 77.4626 138.417 76.9138 138.417 75.4628V72.7033H139.03V72.698Z" fill="white"/>
<path d="M144.395 75.9062L143.908 77.3783H143.279L144.876 72.6929H145.605L147.207 77.3783H146.562L146.06 75.9062H144.395ZM145.933 75.4313L145.473 74.0858C145.367 73.7798 145.299 73.5002 145.23 73.2311H145.214C145.145 73.5107 145.066 73.7956 144.976 74.0806L144.516 75.4366H145.933V75.4313Z" fill="white"/>
<path d="M152.308 77.1725C152.038 77.2675 151.499 77.431 150.865 77.431C150.156 77.431 149.57 77.2516 149.11 76.8137C148.708 76.4233 148.454 75.8006 148.454 75.0672C148.46 73.669 149.422 72.6506 150.997 72.6506C151.541 72.6506 151.964 72.7667 152.165 72.867L152.017 73.3629C151.769 73.2521 151.452 73.1624 150.981 73.1624C149.839 73.1624 149.094 73.8695 149.094 75.0461C149.094 76.2333 149.813 76.9351 150.902 76.9351C151.298 76.9351 151.568 76.877 151.711 76.8084V75.4102H150.759V74.9248H152.303V77.1725H152.308Z" fill="white"/>
<path d="M156.61 75.1833H154.787V76.8718H156.822V77.3783H154.184V72.6929H156.716V73.1994H154.787V74.6821H156.61V75.1833Z" fill="white"/>
<path d="M160.892 76.6446C161.162 76.8135 161.558 76.9506 161.976 76.9506C162.594 76.9506 162.959 76.6235 162.959 76.1539C162.959 75.716 162.71 75.468 162.076 75.2253C161.31 74.9562 160.839 74.5605 160.839 73.8956C160.839 73.1675 161.447 72.624 162.356 72.624C162.837 72.624 163.186 72.7348 163.392 72.8509L163.223 73.3469C163.07 73.2625 162.758 73.1253 162.33 73.1253C161.69 73.1253 161.447 73.5052 161.447 73.827C161.447 74.265 161.732 74.4813 162.377 74.7293C163.17 75.0353 163.577 75.4152 163.577 76.1064C163.577 76.8293 163.043 77.4519 161.933 77.4519C161.479 77.4519 160.987 77.32 160.733 77.1511L160.892 76.6446Z" fill="white"/>
<path d="M168.636 77.2252C168.414 77.336 167.97 77.4468 167.399 77.4468C166.077 77.4468 165.078 76.6131 165.078 75.0777C165.078 73.6109 166.072 72.6189 167.531 72.6189C168.118 72.6189 168.483 72.7455 168.646 72.83L168.498 73.3259C168.271 73.2151 167.943 73.1307 167.552 73.1307C166.453 73.1307 165.723 73.8325 165.723 75.0619C165.723 76.2068 166.384 76.9455 167.526 76.9455C167.896 76.9455 168.271 76.8717 168.514 76.7503L168.636 77.2252Z" fill="white"/>
<path d="M170.946 72.698V74.6555H173.214V72.698H173.827V77.3834H173.214V75.1884H170.946V77.3834H170.338V72.698H170.946Z" fill="white"/>
<path d="M179.837 74.9879C179.837 76.6024 178.853 77.4572 177.659 77.4572C176.422 77.4572 175.55 76.4969 175.55 75.0828C175.55 73.5949 176.475 72.624 177.728 72.624C179.007 72.6188 179.837 73.6002 179.837 74.9879ZM176.195 75.067C176.195 76.0695 176.739 76.9665 177.691 76.9665C178.653 76.9665 179.192 76.0853 179.192 75.0195C179.192 74.0909 178.705 73.1147 177.696 73.1147C176.697 73.1147 176.195 74.0381 176.195 75.067Z" fill="white"/>
<path d="M185.577 74.9879C185.577 76.6024 184.594 77.4572 183.399 77.4572C182.162 77.4572 181.29 76.4969 181.29 75.0828C181.29 73.5949 182.215 72.624 183.468 72.624C184.753 72.6188 185.577 73.6002 185.577 74.9879ZM181.94 75.067C181.94 76.0695 182.485 76.9665 183.436 76.9665C184.398 76.9665 184.938 76.0853 184.938 75.0195C184.938 74.0909 184.451 73.1147 183.442 73.1147C182.437 73.1147 181.94 74.0381 181.94 75.067Z" fill="white"/>
<path d="M187.311 72.698H187.919V76.8769H189.922V77.3834H187.311V72.698Z" fill="white"/>
<path d="M28.845 43.4617L14.425 43.4933L14.4409 46.9177L19.6475 46.886L19.7479 61.1481L23.7864 61.1006L23.6912 46.8386L28.8608 46.886L28.845 43.4617Z" fill="white"/>
<path d="M52.05 46.2477C51.2518 45.4088 50.2898 44.7492 49.1691 44.2638C48.0432 43.7784 46.7112 43.5356 45.1519 43.5356C43.8674 43.5356 42.7151 43.7045 41.6949 44.0422C40.6747 44.3799 39.7233 44.9181 38.8352 45.6567C37.9525 46.3902 37.2283 47.3083 36.668 48.3899C35.9491 49.7829 35.595 51.3078 35.595 52.9593C35.595 55.2598 36.2716 57.2753 37.63 59.0113C39.3691 61.2379 41.8958 62.3459 45.21 62.3459C47.2345 62.3459 48.963 61.8922 50.3955 60.9846C51.8227 60.0771 52.9327 58.8002 53.715 57.154C54.3335 55.8718 54.64 54.5158 54.64 53.0859C54.64 51.6138 54.4128 50.3158 53.9423 49.1919C53.4771 48.0628 52.8481 47.0814 52.05 46.2477ZM48.7833 56.8691C47.8001 57.8874 46.5632 58.3887 45.0779 58.3887C44.0841 58.3887 43.2014 58.1565 42.4296 57.6869C41.6579 57.2173 41.0553 56.563 40.6271 55.7346C40.199 54.901 39.9823 53.9512 39.9823 52.8801C39.9823 51.8407 40.199 50.9067 40.643 50.0836C41.0817 49.2605 41.7055 48.6221 42.5142 48.163C43.3229 47.704 44.174 47.4771 45.0779 47.4771C45.9923 47.4771 46.8592 47.704 47.6891 48.1578C48.5137 48.6115 49.1533 49.2711 49.5973 50.1311C50.0413 50.9912 50.2633 51.9515 50.2633 53.0173C50.258 54.5686 49.7665 55.8507 48.7833 56.8691Z" fill="white"/>
<path d="M70.6247 54.3415L74.1715 54.3785V58.494C73.6535 58.742 71.9039 58.8845 71.2379 58.8845C69.9481 58.8845 68.9861 58.8528 67.9606 58.3252C66.9352 57.7976 66.3484 57.196 65.7934 56.1883C65.2384 55.1857 64.9635 54.0671 64.9635 52.843C64.9635 51.6295 65.3494 50.2734 65.767 49.5769C66.0788 49.0651 66.6973 48.2631 67.7228 47.7302C68.7482 47.1973 69.8477 46.9282 71.0264 46.9282C72.8289 46.9282 74.3196 47.5086 75.5036 48.6641L77.8611 45.7991C77.0101 45.0604 76.1273 44.5169 75.2182 44.1634C74.013 43.7043 72.6651 43.4722 71.1639 43.4722C69.2028 43.4722 67.4637 43.8784 65.952 44.691C64.4349 45.4983 63.2668 46.638 62.4474 48.0996C61.6228 49.5664 61.2158 51.1599 61.2158 52.8852C61.2158 54.4207 61.5647 55.9086 62.2624 57.3543C62.9549 58.7948 64.0385 59.9714 65.508 60.8895C66.9775 61.8023 68.8434 62.2666 71.1163 62.2666C73.6112 62.2666 75.974 61.7021 78.21 60.5782V51.086L70.6247 51.0649V54.3415Z" fill="white"/>
<path d="M90.9384 53.6451H98.5712V50.3843H90.9384V47.1288H98.7774V43.4617H86.8735V61.3855H99.2372V57.3227H90.9384V53.6451Z" fill="white"/>
<path d="M121.2 43.4617L106.78 43.4933L106.791 47.3134L112.002 47.2818L112.098 61.5386L116.136 61.4858L116.041 47.229L121.211 47.2818L121.2 43.4617Z" fill="white"/>
<path d="M140.52 49.8831H133.781V43.562H129.425V61.4806H133.781V53.4922H140.52V61.4806H144.86V43.562H140.52V49.8831Z" fill="white"/>
<path d="M158.614 53.6451H166.247V50.3843H158.614V47.1288H166.458V43.4617H154.554V61.3855H166.913V57.3227H158.614V53.6451Z" fill="white"/>
<path d="M184.599 53.5975C185.492 53.4498 186.227 53.2176 186.772 52.8957C187.538 52.4631 188.114 51.8827 188.505 51.1651C188.897 50.4475 189.097 49.6297 189.097 48.7063C189.097 47.804 188.912 47.002 188.532 46.3003C188.141 45.6038 187.607 45.0392 186.909 44.6118C186.222 44.1844 185.455 43.8995 184.641 43.7623C183.833 43.6199 182.744 43.5513 181.364 43.5513H175.344V61.4751H179.287V53.9088H180.677L185.228 61.4751H189.859L184.599 53.5975ZM183.209 51.0121C182.797 51.1123 182.289 51.1598 180.915 51.1598H179.445V46.6854H181.533C182.548 46.6854 182.881 46.7435 183.315 46.8596C183.912 47.0178 184.382 47.2922 184.715 47.6879C185.059 48.0784 185.218 48.1628 185.218 48.7116C185.218 49.2867 185.043 49.7721 184.7 50.1731C184.351 50.5689 183.854 50.8485 183.209 51.0121Z" fill="white"/>
</svg>
