<svg width="77" height="78" viewBox="0 0 77 78" fill="none" xmlns="http://www.w3.org/2000/svg">
<path d="M69.0162 15.0685H65.2546C66.0861 13.5968 67.3531 11.8939 67.3531 10.0786C67.3531 6.04233 65.0966 2.51911 61.4645 0.883326C57.8321 -0.752608 53.747 -0.0847564 50.8032 2.62566L44.5274 8.40334C43.1918 6.3163 40.8777 4.93187 38.2498 4.93187C35.6179 4.93187 33.3006 6.3204 31.966 8.41305L25.6796 2.62551C22.7357 -0.0846046 18.6503 -0.752304 15.0185 0.883629C11.3862 2.51911 9.12993 6.04263 9.12993 10.0787C9.12993 11.8941 10.3969 13.5968 11.2284 15.0687L7.48369 15.0687C3.35718 15.0685 0 18.479 0 22.6709L0 32.8076C0 34.207 1.11687 35.3418 2.49461 35.3418H4.98922L4.98922 69.975C4.98922 74.167 8.3464 77.5775 12.4729 77.5775C14.9013 77.5775 62.1534 77.5775 64.0271 77.5775C68.1536 77.5775 71.5108 74.167 71.5108 69.975L71.5108 35.3418H74.0054C75.383 35.3418 76.5 34.2072 76.5 32.8076V22.6709C76.4999 18.479 73.1427 15.0685 69.0162 15.0685ZM31.5549 73.2977H12.4728C11.0973 73.2977 9.18949 71.3722 9.18949 69.9749L9.18949 34.5531H31.5548L31.5549 73.2977ZM31.5549 31.062C30.4896 31.062 5.27351 31.062 4.20042 31.062L4.20042 22.6709C4.20042 21.2736 6.10819 19.3481 7.48369 19.3481C8.37136 19.3481 30.4839 19.3481 31.5549 19.3481V31.062ZM17.3505 14.9845C14.5902 14.1955 13.4072 11.8295 13.4072 9.29008C13.4072 7.25738 14.5902 5.52651 15.3789 4.93187C16.1675 4.33724 17.2201 3.54897 18.5335 3.54897C20.8995 3.54897 22.1769 4.72637 23.1181 5.59261L32.5543 15.0685L17.3505 14.9845ZM38.2499 9.21161C39.4272 9.21161 41.2029 10.0454 41.4636 11.1616L38.2416 14.9791L35.0333 11.174C35.2892 10.0516 37.0682 9.21161 38.2499 9.21161ZM41.5332 73.2977H34.9668V34.5531H41.5332V73.2977ZM41.5332 31.062H34.9668V19.3481C36.7501 19.3481 39.7325 19.3481 41.5332 19.3481V31.062ZM53.3649 5.59276C54.8477 4.22791 57.1778 3.54897 60.2313 4.7285C62.0604 5.55208 63.1526 7.49227 63.1526 9.29008C63.1526 11.0879 62.6985 13.8015 59.1495 14.9791L43.9286 15.0687L53.3649 5.59276ZM67.3102 69.975C67.3102 71.3724 65.4024 73.2979 64.0269 73.2979L44.945 73.2979L45.3393 53.5312L44.945 34.5531H67.3102L67.3102 69.975ZM72.2994 31.062C71.2261 31.062 46.0097 31.062 44.945 31.062V19.3481C45.9947 19.3481 68.1055 19.3481 69.0162 19.3481C70.3917 19.3481 72.2994 21.2736 72.2994 22.6709V31.062Z" fill="white"/>
</svg>
