<svg width="6" height="10" viewBox="0 0 6 10" fill="none" xmlns="http://www.w3.org/2000/svg">
<path d="M2.83334 0.890869C1.27107 0.890869 0 2.14181 0 3.67935C0 4.14092 0.117257 4.59856 0.340167 5.00448L2.6784 9.16642C2.70953 9.22191 2.76885 9.25629 2.83334 9.25629C2.89784 9.25629 2.95716 9.22191 2.98829 9.16642L5.32738 5.00311C5.54943 4.59856 5.66669 4.1409 5.66669 3.67933C5.66669 2.14181 4.39562 0.890869 2.83334 0.890869ZM2.83334 5.07358C2.05221 5.07358 1.41668 4.44812 1.41668 3.67935C1.41668 2.91058 2.05221 2.28512 2.83334 2.28512C3.61448 2.28512 4.25001 2.91058 4.25001 3.67935C4.25001 4.44812 3.61448 5.07358 2.83334 5.07358Z" fill="#1A2B49"/>
</svg>
