<svg width="158" height="80" viewBox="0 0 158 80" fill="none" xmlns="http://www.w3.org/2000/svg">
<path d="M11.5198 22.8181V24.0483H13.4471V24.5066H11.0059V20.8161H13.3668V21.2704H11.5198V22.3759H13.2584V22.8181H11.5198Z" fill="#023A7E"/>
<path d="M14.8403 24.5066V20.8161H16.1051C16.3501 20.8161 16.587 20.8523 16.8158 20.9246C17.0447 20.997 17.2535 21.1015 17.4462 21.2463C17.639 21.387 17.7956 21.5839 17.916 21.8292C18.0325 22.0744 18.0927 22.3518 18.0927 22.6653C18.0927 22.9669 18.0325 23.2402 17.916 23.4814C17.7996 23.7226 17.643 23.9196 17.4502 24.0643C17.2575 24.2091 17.0447 24.3176 16.8158 24.394C16.587 24.4704 16.3501 24.5106 16.1051 24.5106H14.8403V24.5066ZM15.3583 21.2664V24.0523H16.0048C16.4585 24.0523 16.8279 23.9277 17.117 23.6784C17.4021 23.4292 17.5466 23.0915 17.5466 22.6613C17.5466 22.2151 17.4061 21.8734 17.121 21.6282C16.8359 21.387 16.4665 21.2623 16.0088 21.2623H15.3583V21.2664Z" fill="#023A7E"/>
<path d="M21.9755 24.1769C21.7306 24.4583 21.3733 24.603 20.9155 24.603C20.4538 24.603 20.1004 24.4623 19.8555 24.1769C19.6106 23.8955 19.4861 23.5498 19.4861 23.1437V20.8201H20V23.1116C20 23.401 20.0723 23.6422 20.2209 23.8392C20.3694 24.0362 20.5983 24.1367 20.9155 24.1367C21.2327 24.1367 21.4616 24.0362 21.6102 23.8392C21.7587 23.6422 21.831 23.397 21.831 23.1116V20.8201H22.3449V23.1437C22.3449 23.5498 22.2245 23.8915 21.9755 24.1769Z" fill="#023A7E"/>
<path d="M26.6693 23.6543L27.0788 23.9357C26.7536 24.3819 26.2838 24.603 25.6735 24.603C25.1074 24.603 24.6416 24.4221 24.2802 24.0563C23.9188 23.6905 23.7341 23.2241 23.7341 22.6613C23.7341 22.0905 23.9188 21.6282 24.2923 21.2664C24.6617 20.9086 25.1314 20.7277 25.6976 20.7277C25.9626 20.7277 26.2156 20.7799 26.4565 20.8804C26.6974 20.9809 26.8861 21.1216 27.0186 21.3025L26.6131 21.6161C26.5247 21.4875 26.3962 21.3829 26.2276 21.3025C26.063 21.2221 25.8823 21.1819 25.6976 21.1819C25.28 21.1819 24.9427 21.3226 24.6857 21.6081C24.4288 21.8935 24.2963 22.2432 24.2963 22.6613C24.2963 23.0834 24.4248 23.4372 24.6777 23.7226C24.9307 24.004 25.2639 24.1488 25.6815 24.1488C26.1152 24.1407 26.4444 23.9799 26.6693 23.6543Z" fill="#023A7E"/>
<path d="M28.8376 23.602L28.4682 24.5106H27.894L29.4921 20.8201H29.9619L31.5439 24.5106H30.9577L30.5843 23.602H28.8376ZM29.7089 21.4191L29.0183 23.1478H30.3955L29.7089 21.4191Z" fill="#023A7E"/>
<path d="M33.7001 21.2704V24.5066H33.1861V21.2704H32.0056V20.8161H34.8845V21.2704H33.7001Z" fill="#023A7E"/>
<path d="M36.595 20.8161V24.5066H36.0811V20.8161H36.595Z" fill="#023A7E"/>
<path d="M41.9152 22.6573C41.9152 23.2241 41.7305 23.6905 41.3611 24.0523C40.9917 24.4181 40.5259 24.599 39.9597 24.599C39.3976 24.599 38.9318 24.4181 38.5664 24.0523C38.197 23.6864 38.0164 23.2201 38.0164 22.6573C38.0164 22.0864 38.2011 21.6241 38.5664 21.2623C38.9318 20.9045 39.3976 20.7236 39.9638 20.7236C40.5299 20.7236 40.9957 20.9045 41.3651 21.2623C41.7305 21.6241 41.9152 22.0864 41.9152 22.6573ZM41.3571 22.6573C41.3571 22.2392 41.2286 21.8895 40.9716 21.604C40.7146 21.3186 40.3773 21.1779 39.9557 21.1779C39.5422 21.1779 39.2089 21.3186 38.9519 21.604C38.6949 21.8895 38.5664 22.2392 38.5664 22.6573C38.5664 23.0794 38.6949 23.4292 38.9519 23.7106C39.2089 23.992 39.5422 24.1367 39.9557 24.1367C40.3773 24.1367 40.7146 23.996 40.9716 23.7106C41.2286 23.4292 41.3571 23.0794 41.3571 22.6573Z" fill="#023A7E"/>
<path d="M43.9953 20.8161L45.9226 23.7669H45.9346V20.8161H46.4486V24.5066H45.7981L43.8507 21.4955H43.8387V24.5066H43.3247V20.8161H43.9953Z" fill="#023A7E"/>
<path d="M50.4836 23.602L50.1142 24.5106H49.54L51.1381 20.8201H51.6079L53.1899 24.5106H52.6077L52.2343 23.602H50.4836ZM51.3589 21.4191L50.6683 23.1478H52.0455L51.3589 21.4191Z" fill="#023A7E"/>
<path d="M57.418 21.202L57.0607 21.5759C56.8197 21.3065 56.4865 21.1739 56.0609 21.1739C55.6393 21.1739 55.302 21.3146 55.045 21.6C54.788 21.8854 54.6555 22.2352 54.6555 22.6533C54.6555 23.0754 54.784 23.4292 55.045 23.7106C55.302 23.992 55.6473 24.1327 56.0769 24.1327C56.4222 24.1327 56.7113 24.0724 56.9362 23.9518V22.9266H56.1211V22.4885H57.4501V24.2774C57.0526 24.4945 56.5909 24.599 56.0649 24.599C55.4907 24.599 55.0169 24.4181 54.6475 24.0563C54.2781 23.6945 54.0974 23.2282 54.0974 22.6573C54.0974 22.0864 54.2821 21.6241 54.6555 21.2623C55.0249 20.9045 55.4947 20.7236 56.0609 20.7236C56.635 20.7236 57.0888 20.8844 57.418 21.202Z" fill="#023A7E"/>
<path d="M59.5503 22.8181V24.0483H61.4776V24.5066H59.0364V20.8161H61.3973V21.2704H59.5503V22.3759H61.2889V22.8181H59.5503Z" fill="#00398A"/>
<path d="M63.5414 20.8161L65.4687 23.7669H65.4808V20.8161H65.9947V24.5066H65.3442L63.3968 21.4955H63.3848V24.5066H62.8708V20.8161H63.5414Z" fill="#00398A"/>
<path d="M70.3431 23.6543L70.7527 23.9357C70.4274 24.3819 69.9576 24.603 69.3473 24.603C68.7812 24.603 68.3154 24.4221 67.954 24.0563C67.5886 23.6905 67.408 23.2241 67.408 22.6613C67.408 22.0905 67.5927 21.6282 67.9661 21.2664C68.3355 20.9086 68.8053 20.7277 69.3714 20.7277C69.6364 20.7277 69.8894 20.7799 70.1303 20.8804C70.3712 20.9809 70.5599 21.1216 70.6924 21.3025L70.2869 21.6161C70.1986 21.4875 70.0701 21.3829 69.9014 21.3025C69.7368 21.2221 69.5561 21.1819 69.3714 21.1819C68.9538 21.1819 68.6165 21.3226 68.3596 21.6081C68.1026 21.8935 67.9701 22.2432 67.9701 22.6613C67.9701 23.0834 68.0986 23.4372 68.3515 23.7226C68.6045 24.004 68.9378 24.1488 69.3554 24.1488C69.789 24.1407 70.1183 23.9799 70.3431 23.6543Z" fill="#00398A"/>
<path d="M73.3626 22.9146V24.5106H72.8406V22.9146L71.4634 20.8201H72.0978L73.1176 22.4885L74.1415 20.8201H74.7398L73.3626 22.9146Z" fill="url(#paint0_linear)"/>
<path d="M67.2153 55.4284C67.4362 55.3922 67.7293 55.36 68.0987 55.36C68.5524 55.36 68.8857 55.4645 69.0985 55.6575C69.2952 55.8263 69.4117 56.0877 69.4117 56.4052C69.4117 56.7269 69.3153 56.9841 69.1386 57.1691C68.8937 57.4304 68.5002 57.559 68.0505 57.559C67.914 57.559 67.7855 57.555 67.6811 57.5269V58.958H67.2153V55.4284ZM67.6771 57.149C67.7775 57.1771 67.906 57.1851 68.0585 57.1851C68.6126 57.1851 68.9539 56.9158 68.9539 56.4213C68.9539 55.951 68.6207 55.7218 68.1147 55.7218C67.914 55.7218 67.7614 55.7379 67.6811 55.758V57.149H67.6771Z" fill="#023A7E"/>
<path d="M73.7923 57.1337C73.7923 58.3638 73.0454 59.0151 72.138 59.0151C71.1984 59.0151 70.5359 58.2834 70.5359 57.206C70.5359 56.0724 71.2386 55.3327 72.1902 55.3327C73.1659 55.3286 73.7923 56.0764 73.7923 57.1337ZM71.0298 57.194C71.0298 57.9578 71.4433 58.6412 72.1661 58.6412C72.8969 58.6412 73.3064 57.9698 73.3064 57.1578C73.3064 56.4502 72.937 55.7065 72.1701 55.7065C71.4072 55.7065 71.0298 56.41 71.0298 57.194Z" fill="#00398A"/>
<path d="M75.1091 55.3889H75.5709V58.5729H77.0927V58.9588H75.1091V55.3889Z" fill="#00398A"/>
<path d="M78.7874 55.3889V58.9588H78.3257V55.3889H78.7874Z" fill="#00398A"/>
<path d="M80.2447 58.396C80.4495 58.5246 80.7506 58.6291 81.0678 58.6291C81.5376 58.6291 81.8147 58.3799 81.8147 58.0221C81.8147 57.6884 81.626 57.4995 81.1441 57.3146C80.5619 57.1095 80.2046 56.808 80.2046 56.3015C80.2046 55.7467 80.6663 55.3327 81.3569 55.3327C81.7223 55.3327 81.9873 55.4171 82.1439 55.5055L82.0154 55.8834C81.899 55.8191 81.6621 55.7146 81.3369 55.7146C80.851 55.7146 80.6663 56.004 80.6663 56.2492C80.6663 56.5829 80.8831 56.7477 81.373 56.9367C81.9753 57.1699 82.2844 57.4593 82.2844 57.9859C82.2844 58.5367 81.8789 59.0111 81.0357 59.0111C80.6904 59.0111 80.317 58.9105 80.1243 58.7819L80.2447 58.396Z" fill="#005BA3"/>
<path d="M84.0953 55.3889V56.8804H85.8178V55.3889H86.2836V58.9588H85.8178V57.2864H84.0953V58.9588H83.6335V55.3889H84.0953Z" fill="#005BA3"/>
<path d="M89.6445 55.3889H90.1063V58.5729H91.6281V58.9588H89.6445V55.3889Z" fill="url(#paint1_linear)"/>
<path d="M93.4349 57.8332L93.0655 58.9548H92.5876L93.8003 55.3849H94.3544L95.571 58.9548H95.0811L94.6997 57.8332H93.4349ZM94.6033 57.4714L94.254 56.4463C94.1737 56.2131 94.1215 56 94.0693 55.795H94.0572C94.005 56.0081 93.9448 56.2252 93.8765 56.4422L93.5272 57.4754H94.6033V57.4714Z" fill="url(#paint2_linear)"/>
<path d="M96.8115 58.9548V55.3849H97.3134L98.4538 57.19C98.7188 57.6081 98.9235 57.986 99.0922 58.3478L99.1042 58.3437C99.0601 57.8654 99.052 57.4312 99.052 56.8764V55.3849H99.4857V58.9548H99.0199L97.8876 57.1458C97.6387 56.7478 97.4018 56.3417 97.2211 55.9558L97.205 55.9598C97.2331 56.4101 97.2412 56.8402 97.2412 57.4312V58.9548H96.8115Z" fill="url(#paint3_linear)"/>
<path d="M103.726 58.798C103.521 58.8703 103.112 58.995 102.63 58.995C102.092 58.995 101.646 58.8583 101.297 58.5246C100.992 58.2271 100.799 57.7528 100.799 57.194C100.803 56.1286 101.534 55.3528 102.73 55.3528C103.144 55.3528 103.465 55.4412 103.618 55.5176L103.505 55.8955C103.316 55.811 103.075 55.7427 102.718 55.7427C101.851 55.7427 101.285 56.2814 101.285 57.1779C101.285 58.0824 101.831 58.6171 102.658 58.6171C102.959 58.6171 103.164 58.5729 103.272 58.5206V57.4553H102.549V57.0854H103.722V58.798H103.726Z" fill="url(#paint4_linear)"/>
<path d="M105.609 55.3889V57.4995C105.609 58.2995 105.962 58.6372 106.44 58.6372C106.97 58.6372 107.308 58.2874 107.308 57.4995V55.3889H107.773V57.4714C107.773 58.5688 107.195 59.0191 106.424 59.0191C105.693 59.0191 105.143 58.601 105.143 57.4955V55.393H105.609V55.3889Z" fill="url(#paint5_linear)"/>
<path d="M109.685 57.8332L109.315 58.9548H108.837L110.05 55.3849H110.604L111.821 58.9548H111.331L110.949 57.8332H109.685ZM110.853 57.4714L110.504 56.4463C110.423 56.2131 110.371 56 110.319 55.795H110.307C110.255 56.0081 110.195 56.2252 110.126 56.4422L109.777 57.4754H110.853V57.4714Z" fill="url(#paint6_linear)"/>
<path d="M115.695 58.798C115.491 58.8703 115.081 58.995 114.599 58.995C114.061 58.995 113.616 58.8583 113.266 58.5246C112.961 58.2271 112.768 57.7528 112.768 57.194C112.772 56.1286 113.503 55.3528 114.7 55.3528C115.113 55.3528 115.434 55.4412 115.587 55.5176L115.475 55.8955C115.286 55.811 115.045 55.7427 114.688 55.7427C113.82 55.7427 113.254 56.2814 113.254 57.1779C113.254 58.0824 113.8 58.6171 114.627 58.6171C114.929 58.6171 115.133 58.5729 115.242 58.5206V57.4553H114.519V57.0854H115.691V58.798H115.695Z" fill="url(#paint7_linear)"/>
<path d="M118.964 57.2824H117.579V58.5689H119.124V58.9548H117.121V55.3849H119.044V55.7709H117.579V56.9005H118.964V57.2824Z" fill="url(#paint8_linear)"/>
<path d="M122.216 58.396C122.421 58.5246 122.722 58.6291 123.039 58.6291C123.509 58.6291 123.786 58.3799 123.786 58.0221C123.786 57.6884 123.597 57.4995 123.116 57.3146C122.533 57.1095 122.176 56.808 122.176 56.3015C122.176 55.7467 122.638 55.3327 123.328 55.3327C123.694 55.3327 123.959 55.4171 124.115 55.5055L123.987 55.8834C123.87 55.8191 123.634 55.7146 123.308 55.7146C122.822 55.7146 122.638 56.004 122.638 56.2492C122.638 56.5829 122.855 56.7477 123.344 56.9367C123.947 57.1699 124.256 57.4593 124.256 57.9859C124.256 58.5367 123.85 59.0111 123.007 59.0111C122.662 59.0111 122.288 58.9105 122.096 58.7819L122.216 58.396Z" fill="url(#paint9_linear)"/>
<path d="M128.099 58.8382C127.93 58.9226 127.593 59.007 127.159 59.007C126.155 59.007 125.396 58.3719 125.396 57.202C125.396 56.0844 126.151 55.3286 127.259 55.3286C127.705 55.3286 127.982 55.4251 128.107 55.4894L127.994 55.8673C127.821 55.7829 127.573 55.7186 127.275 55.7186C126.44 55.7186 125.886 56.2533 125.886 57.1899C125.886 58.0623 126.388 58.6251 127.255 58.6251C127.536 58.6251 127.821 58.5688 128.006 58.4764L128.099 58.8382Z" fill="url(#paint10_linear)"/>
<path d="M129.853 55.3889V56.8804H131.576V55.3889H132.042V58.9588H131.576V57.2864H129.853V58.9588H129.392V55.3889H129.853Z" fill="#2BACFF"/>
<path d="M136.607 57.1337C136.607 58.3638 135.86 59.0151 134.952 59.0151C134.013 59.0151 133.35 58.2834 133.35 57.206C133.35 56.0724 134.053 55.3327 135.005 55.3327C135.976 55.3286 136.607 56.0764 136.607 57.1337ZM133.84 57.194C133.84 57.9578 134.254 58.6412 134.977 58.6412C135.707 58.6412 136.117 57.9698 136.117 57.1578C136.117 56.4502 135.747 55.7065 134.981 55.7065C134.222 55.7065 133.84 56.41 133.84 57.194Z" fill="#2BACFF"/>
<path d="M140.967 57.1337C140.967 58.3638 140.22 59.0151 139.313 59.0151C138.373 59.0151 137.711 58.2834 137.711 57.206C137.711 56.0724 138.414 55.3327 139.365 55.3327C140.341 55.3286 140.967 56.0764 140.967 57.1337ZM138.205 57.194C138.205 57.9578 138.618 58.6412 139.341 58.6412C140.072 58.6412 140.481 57.9698 140.481 57.1578C140.481 56.4502 140.112 55.7065 139.345 55.7065C138.582 55.7065 138.205 56.41 138.205 57.194Z" fill="#2BACFF"/>
<path d="M142.284 55.3889H142.746V58.5729H144.268V58.9588H142.284V55.3889Z" fill="#2BACFF"/>
<path d="M21.9111 33.1136L10.9575 33.1377L10.9696 35.7468L14.9246 35.7226L15.0009 46.589L18.0685 46.5528L17.9963 35.6864L21.9232 35.7226L21.9111 33.1136Z" fill="#023A7E"/>
<path d="M39.538 35.2362C38.9317 34.597 38.201 34.0945 37.3497 33.7246C36.4945 33.3548 35.4826 33.1699 34.2981 33.1699C33.3224 33.1699 32.4471 33.2985 31.6722 33.5558C30.8972 33.8131 30.1745 34.2231 29.4999 34.7859C28.8294 35.3447 28.2793 36.0442 27.8537 36.8684C27.3076 37.9297 27.0386 39.0915 27.0386 40.3498C27.0386 42.1025 27.5525 43.6382 28.5844 44.9608C29.9055 46.6573 31.8247 47.5015 34.3423 47.5015C35.8801 47.5015 37.1931 47.1558 38.2813 46.4643C39.3654 45.7729 40.2086 44.8 40.8028 43.5457C41.2726 42.5689 41.5055 41.5357 41.5055 40.4462C41.5055 39.3246 41.3329 38.3357 40.9755 37.4794C40.6222 36.6191 40.1443 35.8714 39.538 35.2362ZM37.0566 43.3287C36.3098 44.1045 35.3702 44.4864 34.2419 44.4864C33.4871 44.4864 32.8165 44.3096 32.2303 43.9518C31.6441 43.594 31.1863 43.0955 30.8611 42.4643C30.5359 41.8292 30.3712 41.1055 30.3712 40.2895C30.3712 39.4975 30.5359 38.7859 30.8731 38.1588C31.2064 37.5317 31.6802 37.0452 32.2945 36.6955C32.9089 36.3457 33.5553 36.1729 34.2419 36.1729C34.9366 36.1729 35.5951 36.3457 36.2255 36.6915C36.8518 37.0372 37.3377 37.5397 37.675 38.195C38.0122 38.8503 38.1809 39.5819 38.1809 40.394C38.1769 41.5759 37.8035 42.5528 37.0566 43.3287Z" fill="#00398A"/>
<path d="M53.6476 41.4031L56.3419 41.4312V44.5669C55.9484 44.7558 54.6193 44.8644 54.1134 44.8644C53.1337 44.8644 52.4029 44.8402 51.6239 44.4382C50.845 44.0362 50.3993 43.5779 49.9777 42.8101C49.5561 42.0463 49.3473 41.194 49.3473 40.2613C49.3473 39.3367 49.6404 38.3036 49.9576 37.7729C50.1945 37.3829 50.6643 36.7719 51.4433 36.3659C52.2222 35.9598 53.0574 35.7548 53.9528 35.7548C55.322 35.7548 56.4543 36.197 57.3537 37.0774L59.1445 34.8945C58.498 34.3317 57.8275 33.9176 57.1369 33.6483C56.2214 33.2985 55.1975 33.1216 54.0572 33.1216C52.5675 33.1216 51.2465 33.4312 50.0981 34.0503C48.9458 34.6654 48.0584 35.5337 47.436 36.6473C46.8097 37.7649 46.5005 38.9789 46.5005 40.2935C46.5005 41.4634 46.7655 42.597 47.2955 43.6985C47.8215 44.796 48.6446 45.6925 49.7609 46.392C50.8771 47.0875 52.2945 47.4412 54.021 47.4412C55.9162 47.4412 57.7111 47.0111 59.4095 46.1548V38.9226L53.6476 38.9066V41.4031Z" fill="#00398A"/>
<path d="M69.0782 40.8724H74.8762V38.388H69.0782V35.9076H75.0328V33.1136H65.9905V46.7699H75.3821V43.6744H69.0782V40.8724Z" fill="url(#paint11_linear)"/>
<path d="M92.0654 33.1136L81.1118 33.1377L81.1198 36.0483L85.0789 36.0241L85.1512 46.8865L88.2188 46.8463L88.1465 35.9839L92.0734 36.0241L92.0654 33.1136Z" fill="url(#paint12_linear)"/>
<path d="M106.741 38.0061H101.622V33.19H98.3132V46.8422H101.622V40.7558H106.741V46.8422H110.038V33.19H106.741V38.0061Z" fill="url(#paint13_linear)"/>
<path d="M120.485 40.8724H126.283V38.388H120.485V35.9076H126.444V33.1136H117.402V46.7699H126.789V43.6744H120.485V40.8724Z" fill="#46A7E8"/>
<path d="M140.224 40.8362C140.903 40.7236 141.461 40.5467 141.875 40.3015C142.457 39.9719 142.894 39.5297 143.192 38.9829C143.489 38.4362 143.641 37.8131 143.641 37.1096C143.641 36.4221 143.501 35.8111 143.212 35.2764C142.915 34.7457 142.509 34.3156 141.979 33.99C141.457 33.6643 140.875 33.4472 140.256 33.3427C139.642 33.2342 138.815 33.1819 137.767 33.1819H133.194V46.8382H136.189V41.0734H137.245L140.702 46.8382H144.219L140.224 40.8362ZM139.168 38.8663C138.855 38.9427 138.47 38.9789 137.426 38.9789H136.309V35.5699H137.895C138.666 35.5699 138.919 35.6141 139.249 35.7025C139.702 35.8231 140.06 36.0322 140.313 36.3337C140.574 36.6312 140.694 36.6955 140.694 37.1136C140.694 37.5518 140.562 37.9216 140.301 38.2271C140.036 38.5286 139.658 38.7417 139.168 38.8663Z" fill="#2BACFF"/>
<defs>
<linearGradient id="paint0_linear" x1="71.4636" y1="22.6625" x2="74.7423" y2="22.6625" gradientUnits="userSpaceOnUse">
<stop stop-color="#00398A"/>
<stop offset="1" stop-color="#097EB7"/>
</linearGradient>
<linearGradient id="paint1_linear" x1="89.6426" y1="57.1714" x2="91.6257" y2="57.1714" gradientUnits="userSpaceOnUse">
<stop stop-color="#097EB7"/>
<stop offset="1" stop-color="#289FE9"/>
</linearGradient>
<linearGradient id="paint2_linear" x1="92.588" y1="57.1714" x2="95.5705" y2="57.1714" gradientUnits="userSpaceOnUse">
<stop stop-color="#097EB7"/>
<stop offset="1" stop-color="#289FE9"/>
</linearGradient>
<linearGradient id="paint3_linear" x1="96.8131" y1="57.1714" x2="99.4889" y2="57.1714" gradientUnits="userSpaceOnUse">
<stop stop-color="#289FE9"/>
<stop offset="1" stop-color="#46A7E8"/>
</linearGradient>
<linearGradient id="paint4_linear" x1="100.801" y1="57.1714" x2="103.725" y2="57.1714" gradientUnits="userSpaceOnUse">
<stop stop-color="#289FE9"/>
<stop offset="1" stop-color="#46A7E8"/>
</linearGradient>
<linearGradient id="paint5_linear" x1="105.142" y1="57.2005" x2="107.77" y2="57.2005" gradientUnits="userSpaceOnUse">
<stop stop-color="#289FE9"/>
<stop offset="1" stop-color="#46A7E8"/>
</linearGradient>
<linearGradient id="paint6_linear" x1="108.839" y1="57.1714" x2="111.821" y2="57.1714" gradientUnits="userSpaceOnUse">
<stop stop-color="#289FE9"/>
<stop offset="1" stop-color="#46A7E8"/>
</linearGradient>
<linearGradient id="paint7_linear" x1="112.773" y1="57.1714" x2="115.697" y2="57.1714" gradientUnits="userSpaceOnUse">
<stop stop-color="#289FE9"/>
<stop offset="1" stop-color="#46A7E8"/>
</linearGradient>
<linearGradient id="paint8_linear" x1="117.12" y1="57.1714" x2="119.124" y2="57.1714" gradientUnits="userSpaceOnUse">
<stop stop-color="#289FE9"/>
<stop offset="1" stop-color="#46A7E8"/>
</linearGradient>
<linearGradient id="paint9_linear" x1="122.101" y1="57.1687" x2="124.259" y2="57.1687" gradientUnits="userSpaceOnUse">
<stop stop-color="#289FE9"/>
<stop offset="1" stop-color="#46A7E8"/>
</linearGradient>
<linearGradient id="paint10_linear" x1="125.396" y1="57.1687" x2="128.103" y2="57.1687" gradientUnits="userSpaceOnUse">
<stop stop-color="#289FE9"/>
<stop offset="1" stop-color="#46A7E8"/>
</linearGradient>
<linearGradient id="paint11_linear" x1="65.9894" y1="39.9418" x2="75.3833" y2="39.9418" gradientUnits="userSpaceOnUse">
<stop stop-color="#00398A"/>
<stop offset="1" stop-color="#097EB7"/>
</linearGradient>
<linearGradient id="paint12_linear" x1="81.1111" y1="39.9995" x2="92.0715" y2="39.9995" gradientUnits="userSpaceOnUse">
<stop stop-color="#097EB7"/>
<stop offset="1" stop-color="#289FE9"/>
</linearGradient>
<linearGradient id="paint13_linear" x1="98.3137" y1="40.0165" x2="110.037" y2="40.0165" gradientUnits="userSpaceOnUse">
<stop stop-color="#289FE9"/>
<stop offset="1" stop-color="#46A7E8"/>
</linearGradient>
</defs>
</svg>
