<svg width="37" height="37" viewBox="0 0 37 37" fill="none" xmlns="http://www.w3.org/2000/svg">
<g clip-path="url(#clip0)">
<path d="M19.335 16.0334C21.7153 16.0334 23.6516 14.0964 23.6516 11.7167C23.6516 9.33697 21.7153 7.40002 19.335 7.40002C16.9546 7.40002 15.0183 9.33697 15.0183 11.7167C15.0183 14.0964 16.9546 16.0334 19.335 16.0334ZM19.335 8.63336C21.0351 8.63336 22.4183 10.0165 22.4183 11.7167C22.4183 13.4168 21.0351 14.8 19.335 14.8C17.6348 14.8 16.2516 13.4168 16.2516 11.7167C16.2516 10.0165 17.6348 8.63336 19.335 8.63336Z" fill="white"/>
<path d="M19.226 33.7668L28.6863 20.1033C32.2346 15.3723 31.7209 7.59733 27.588 3.46443C25.3544 1.23025 22.3846 0 19.226 0C16.0674 0 13.0976 1.23025 10.864 3.46382C6.73048 7.59671 6.2168 15.3729 9.75153 20.0842L19.226 33.7668ZM11.736 4.33578C13.7364 2.33532 16.3967 1.23333 19.226 1.23333C22.0553 1.23333 24.7149 2.33532 26.716 4.33578C30.4462 8.066 30.9056 15.0886 27.686 19.3818L19.226 31.5998L10.7524 19.3633C7.54571 15.0886 8.00513 8.066 11.736 4.33578Z" fill="white"/>
<path d="M0.616821 35.5114L0.180837 35.9474C-0.0602792 36.1885 -0.0602792 36.5782 0.180837 36.8193C0.301087 36.9396 0.458954 37 0.616821 37C0.774687 37 0.932554 36.9396 1.0528 36.8193L1.48879 36.3834C1.7299 36.1423 1.7299 35.7525 1.48879 35.5114C1.24767 35.2703 0.857937 35.2703 0.616821 35.5114Z" fill="white"/>
<path d="M5.31344 32.0667C4.97304 32.0667 4.69678 32.3423 4.69678 32.6833C4.69678 33.0243 4.97304 33.3 5.31344 33.3H6.43578C6.77618 33.3 7.05244 33.0243 7.05244 32.6833C7.05244 32.3423 6.77618 32.0667 6.43578 32.0667H5.31344Z" fill="white"/>
<path d="M3.86965 33.1304C3.62853 32.8893 3.2388 32.8893 2.99768 33.1304L2.20403 33.9241C1.96291 34.1652 1.96291 34.5549 2.20403 34.796C2.32428 34.9163 2.48215 34.9767 2.64001 34.9767C2.79788 34.9767 2.95575 34.9163 3.076 34.796L3.86965 34.0024C4.11077 33.7613 4.11077 33.3709 3.86965 33.1304Z" fill="white"/>
<path d="M12.0493 32.0667C11.7089 32.0667 11.4326 32.3423 11.4326 32.6833C11.4326 33.0243 11.7089 33.3 12.0493 33.3H13.1716C13.512 33.3 13.7883 33.0243 13.7883 32.6833C13.7883 32.3423 13.512 32.0667 13.1716 32.0667H12.0493Z" fill="white"/>
<path d="M8.68088 32.0667C8.34048 32.0667 8.06421 32.3423 8.06421 32.6833C8.06421 33.0243 8.34048 33.3 8.68088 33.3H9.80383C10.1442 33.3 10.4205 33.0243 10.4205 32.6833C10.4205 32.3423 10.1442 32.0667 9.80383 32.0667H8.68088Z" fill="white"/>
<path d="M15.4167 32.0667C15.0763 32.0667 14.8 32.3423 14.8 32.6833C14.8 33.0243 15.0763 33.3 15.4167 33.3H16.0334C16.3738 33.3 16.65 33.0243 16.65 32.6833C16.65 32.3423 16.3738 32.0667 16.0334 32.0667H15.4167Z" fill="white"/>
<path d="M0.616705 33.1507C0.774572 33.1507 0.932438 33.0903 1.05269 32.97L3.44289 30.5798C3.50147 30.5212 3.5656 30.4688 3.6581 30.4121L3.77712 30.348C3.7987 30.335 3.81967 30.3221 3.84249 30.3122L4.07312 30.2413C4.1539 30.2259 4.2353 30.2166 4.3167 30.2166H13.5667C13.9071 30.2166 14.1834 29.941 14.1834 29.5999C14.1834 29.2589 13.9071 28.9833 13.5667 28.9833H4.3167C4.15884 28.9833 3.99665 28.9993 3.82892 29.032C3.76972 29.0449 3.71299 29.0622 3.65687 29.0807L3.57609 29.1048C3.50702 29.1233 3.43795 29.1442 3.37505 29.1701C3.30167 29.2003 3.2326 29.2373 3.16415 29.2768L3.10557 29.3089C3.05315 29.3354 3.00135 29.3625 2.94709 29.3989C2.8108 29.4896 2.68439 29.5938 2.5703 29.7079L0.180105 32.0981C-0.0610116 32.3392 -0.0610116 32.7289 0.180105 32.97C0.300972 33.0903 0.458838 33.1507 0.616705 33.1507Z" fill="white"/>
<path d="M35.9474 30.036C36.1053 30.036 36.2631 29.9756 36.3834 29.8554L36.8194 29.4194C37.0605 29.1783 37.0605 28.7885 36.8194 28.5474C36.5782 28.3063 36.1885 28.3063 35.9474 28.5474L35.5114 28.9834C35.2703 29.2245 35.2703 29.6142 35.5114 29.8554C35.6317 29.9756 35.7895 30.036 35.9474 30.036Z" fill="white"/>
<path d="M33.6491 30.8456L32.7179 31.7768C32.4768 32.0179 32.4768 32.4076 32.7179 32.6488C32.8382 32.769 32.9961 32.8294 33.1539 32.8294C33.3118 32.8294 33.4697 32.769 33.5899 32.6488L34.5211 31.7176C34.7622 31.4765 34.7622 31.0867 34.5211 30.8456C34.28 30.6045 33.8902 30.6045 33.6491 30.8456Z" fill="white"/>
<path d="M29.3996 32.0667C29.0586 32.0667 28.783 32.3423 28.783 32.6833C28.783 33.0243 29.0586 33.3 29.3996 33.3H30.7162C31.0572 33.3 31.3329 33.0243 31.3329 32.6833C31.3329 32.3423 31.0572 32.0667 30.7162 32.0667H29.3996Z" fill="white"/>
<path d="M25.4499 32.0667C25.1095 32.0667 24.8333 32.3423 24.8333 32.6833C24.8333 33.0243 25.1095 33.3 25.4499 33.3H26.7665C27.1069 33.3 27.3832 33.0243 27.3832 32.6833C27.3832 32.3423 27.1069 32.0667 26.7665 32.0667H25.4499Z" fill="white"/>
<path d="M22.2002 32.0667C21.8598 32.0667 21.5835 32.3423 21.5835 32.6833C21.5835 33.0243 21.8598 33.3 22.2002 33.3H22.8168C23.1572 33.3 23.4335 33.0243 23.4335 32.6833C23.4335 32.3423 23.1572 32.0667 22.8168 32.0667H22.2002Z" fill="white"/>
<path d="M35.9474 32.3965L33.5572 34.7868C33.4993 34.8447 33.4358 34.8965 33.3433 34.9539L33.2273 35.0168C33.2027 35.0303 33.1786 35.0458 33.1539 35.0556C33.1348 35.0636 33.1145 35.068 33.0941 35.0735L32.9227 35.1253C32.8444 35.1413 32.7642 35.15 32.6834 35.15H4.8656L3.93012 35.9029C3.66495 36.1169 3.6224 36.5054 3.83639 36.77C3.95787 36.921 4.1367 37 4.31677 37C4.45244 37 4.58934 36.9556 4.7028 36.8637L5.30035 36.3833H32.6834C32.8438 36.3833 33.0066 36.3673 33.1638 36.3352C33.2267 36.3229 33.2859 36.305 33.3457 36.2853L33.4228 36.2624C33.4919 36.2433 33.5603 36.223 33.6294 36.194C33.7015 36.1638 33.7694 36.1274 33.8372 36.0885L33.8983 36.0552C33.9513 36.0287 34.0031 36.001 34.0506 35.9689C34.1869 35.8783 34.3145 35.774 34.4292 35.6587L36.8194 33.2685C37.0605 33.0274 37.0605 32.6377 36.8194 32.3965C36.5783 32.1554 36.1886 32.156 35.9474 32.3965Z" fill="white"/>
<path d="M24.05 29.6C24.05 29.941 24.3263 30.2167 24.6667 30.2167H32.1728L34.2035 28.186C34.4446 27.9449 34.4446 27.5551 34.2035 27.314C33.9624 27.0729 33.5726 27.0729 33.3315 27.314L31.6622 28.9833H24.6667C24.3263 28.9833 24.05 29.259 24.05 29.6Z" fill="white"/>
</g>
<defs>
<clipPath id="clip0">
<rect width="37" height="37" fill="white"/>
</clipPath>
</defs>
</svg>
