<svg width="38" height="38" viewBox="0 0 38 38" fill="none" xmlns="http://www.w3.org/2000/svg">
<g clip-path="url(#clip0)">
<path d="M37.4985 0.185609C37.2509 -0.0620325 36.8506 -0.0620325 36.6029 0.185609L34.2551 2.53345H19.5087L0.970417 21.2244C0.548603 21.6462 0.316162 22.208 0.316162 22.8046C0.316162 23.4012 0.548603 23.963 0.970417 24.3848L13.9327 37.347C14.3678 37.7822 14.9384 38 15.5103 38C16.0848 38 16.6592 37.7803 17.0994 37.3407L35.1507 18.8018V3.42902L37.4985 1.08117C37.7462 0.833531 37.7462 0.433251 37.4985 0.185609ZM33.884 18.2875L16.1975 36.4515C15.82 36.829 15.2057 36.829 14.8282 36.4515L1.86598 23.4893C1.4885 23.1118 1.4885 22.4974 1.86788 22.118L20.0369 3.80016H32.9884L29.9274 6.86116C29.4264 6.52929 28.8279 6.33358 28.1838 6.33358C26.4376 6.33358 25.017 7.75419 25.017 9.50035C25.017 11.2465 26.4376 12.6671 28.1838 12.6671C29.9299 12.6671 31.3505 11.2465 31.3505 9.50035C31.3505 8.85623 31.1548 8.25771 30.823 7.75673L33.884 4.69573V18.2875ZM30.0838 9.50035C30.0838 10.5479 29.2313 11.4004 28.1838 11.4004C27.1362 11.4004 26.2837 10.5479 26.2837 9.50035C26.2837 8.45278 27.1362 7.60029 28.1838 7.60029C28.4764 7.60029 28.75 7.67249 28.9976 7.79093L27.736 9.05257C27.4883 9.30021 27.4883 9.70049 27.736 9.94813C27.8595 10.0716 28.0216 10.1337 28.1838 10.1337C28.3459 10.1337 28.508 10.0716 28.6315 9.94813L29.8932 8.68649C30.0123 8.93413 30.0838 9.20774 30.0838 9.50035Z" fill="white"/>
<path d="M26.7569 19.812L20.0395 26.53C19.7918 26.7776 19.7918 27.1779 20.0395 27.4255C20.163 27.549 20.3251 27.6111 20.4873 27.6111C20.6494 27.6111 20.8116 27.549 20.9351 27.4255L27.6524 20.7075C27.9001 20.4599 27.9001 20.0596 27.6524 19.812C27.4048 19.5643 27.0045 19.565 26.7569 19.812Z" fill="white"/>
<path d="M28.9945 17.5693C28.8798 17.689 28.8108 17.8537 28.8108 18.019C28.8108 18.19 28.8798 18.354 28.9945 18.4687C29.1142 18.5884 29.2788 18.6523 29.4441 18.6523C29.6088 18.6523 29.7735 18.5884 29.8869 18.4687C30.0072 18.354 30.0775 18.19 30.0775 18.019C30.0775 17.8537 30.0078 17.689 29.8869 17.5693C29.6525 17.335 29.2351 17.335 28.9945 17.5693Z" fill="white"/>
<path d="M23.6218 12.1985C23.8694 11.9508 23.8694 11.5506 23.6218 11.3029C23.3741 11.0553 22.9739 11.0553 22.7262 11.3029L16.0082 18.0209C15.7606 18.2686 15.7606 18.6688 16.0082 18.9165C16.1317 19.04 16.2939 19.1021 16.456 19.1021C16.6182 19.1021 16.7803 19.04 16.9038 18.9165L23.6218 12.1985Z" fill="white"/>
<path d="M21.3828 19.8119C21.5063 19.9354 21.6684 19.9975 21.8305 19.9975C21.9927 19.9975 22.1548 19.9354 22.2783 19.8119L26.7568 15.3335C27.0044 15.0858 27.0044 14.6856 26.7568 14.4379C26.5091 14.1903 26.1088 14.1903 25.8612 14.4379L21.3828 18.9164C21.1351 19.164 21.1351 19.5649 21.3828 19.8119Z" fill="white"/>
<path d="M17.7998 22.4987L16.9042 23.3943C16.6566 23.6419 16.6566 24.0422 16.9042 24.2899C17.0277 24.4134 17.1899 24.4754 17.352 24.4754C17.5142 24.4754 17.6763 24.4134 17.7998 24.2899L18.6954 23.3943C18.943 23.1466 18.943 22.7464 18.6954 22.4987C18.4477 22.2511 18.0468 22.2517 17.7998 22.4987Z" fill="white"/>
<path d="M11.082 18.2058C11.2441 18.2058 11.4063 18.1437 11.5298 18.0202L18.2471 11.3029C18.4948 11.0552 18.4948 10.6549 18.2471 10.4073C17.9995 10.1596 17.5992 10.1596 17.3516 10.4073L10.6342 17.1246C10.3866 17.3723 10.3866 17.7726 10.6342 18.0202C10.7577 18.1437 10.9199 18.2058 11.082 18.2058Z" fill="white"/>
<path d="M20.0389 9.24702C20.2035 9.24702 20.3689 9.18369 20.4886 9.06335C20.6032 8.94365 20.6722 8.78531 20.6722 8.61367C20.6722 8.449 20.6032 8.28432 20.4822 8.16399C20.2479 7.92964 19.8299 7.92964 19.5892 8.17032C19.4752 8.28496 19.4055 8.449 19.4055 8.61367C19.4055 8.77834 19.4752 8.94365 19.5892 9.06335C19.7095 9.18369 19.8742 9.24702 20.0389 9.24702Z" fill="white"/>
<path d="M14.2183 19.8114C14.098 19.9311 14.0347 20.0894 14.0347 20.2611C14.0347 20.4321 14.098 20.5904 14.2183 20.7038C14.3323 20.8241 14.4964 20.8944 14.668 20.8944C14.8327 20.8944 14.9974 20.8247 15.1107 20.7107C15.2311 20.5904 15.3014 20.4257 15.3014 20.2611C15.3014 20.0958 15.2317 19.9311 15.1107 19.8114C14.877 19.577 14.452 19.577 14.2183 19.8114Z" fill="white"/>
<path d="M20.4886 21.6031C20.6032 21.4891 20.6722 21.325 20.6722 21.1534C20.6722 20.9887 20.6032 20.824 20.4886 20.7037C20.2479 20.4694 19.8299 20.4694 19.5892 20.7037C19.4752 20.824 19.4055 20.9887 19.4055 21.1534C19.4055 21.325 19.4752 21.4834 19.5892 21.6031C19.7095 21.7234 19.8742 21.7867 20.0389 21.7867C20.2035 21.7867 20.3682 21.724 20.4886 21.6031Z" fill="white"/>
<path d="M15.6129 30.1648C16.0024 29.5764 16.1886 28.8721 16.1284 28.1558C16.079 27.5579 15.7909 27.0177 15.3177 26.6339C14.8332 26.2418 14.1973 26.0619 13.5836 26.1392L11.809 26.3609L9.37309 23.925C10.0786 23.59 10.947 23.7071 11.5303 24.2905C11.7779 24.5381 12.1782 24.5381 12.4259 24.2905C12.6735 24.0428 12.6735 23.6425 12.4259 23.3949C11.3447 22.3138 9.6695 22.1801 8.44016 22.9927L7.94677 22.4993C7.69913 22.2517 7.29885 22.2517 7.05121 22.4993C6.80357 22.747 6.80357 23.1473 7.05121 23.3949L7.54586 23.8895C7.15698 24.4773 6.97077 25.1822 7.03094 25.8985C7.08034 26.4958 7.36852 27.0367 7.841 27.4199C8.32552 27.8119 8.95761 27.9924 9.57576 27.9158L11.3504 27.6941L13.78 30.1236C13.0763 30.441 12.1902 30.3251 11.6291 29.7639C11.3815 29.5163 10.9812 29.5163 10.7335 29.7639C10.4859 30.0109 10.4859 30.4118 10.7335 30.6595C11.3308 31.2574 12.1263 31.5873 12.9724 31.5873C13.6033 31.5873 14.2049 31.403 14.7186 31.0623L15.1125 31.4562C15.236 31.5797 15.3982 31.6418 15.5603 31.6418C15.7225 31.6418 15.8846 31.5797 16.0081 31.4562C16.2557 31.2086 16.2557 30.8083 16.0081 30.5607L15.6129 30.1648ZM9.41869 26.6592C9.14128 26.6934 8.85564 26.6136 8.63903 26.4363C8.43699 26.2716 8.31348 26.0436 8.29258 25.7928C8.26472 25.4533 8.33692 25.1221 8.47942 24.8225L10.2161 26.5591L9.41869 26.6592ZM13.7407 27.3958C14.0149 27.3584 14.3018 27.4414 14.5191 27.6181C14.7218 27.7828 14.8453 28.0108 14.8662 28.2616C14.894 28.6011 14.8218 28.9323 14.6787 29.2319L12.9427 27.4959L13.7407 27.3958Z" fill="white"/>
</g>
<defs>
<clipPath id="clip0">
<rect width="38" height="38" fill="white"/>
</clipPath>
</defs>
</svg>
