<svg width="37" height="37" viewBox="0 0 37 37" fill="none" xmlns="http://www.w3.org/2000/svg">
<path d="M30.7071 17.5825H22.8154C22.5159 17.5825 22.2734 17.825 22.2734 18.1245C22.2734 18.424 22.5159 18.6665 22.8154 18.6665H30.7071C31.0063 18.6665 31.2491 18.424 31.2491 18.1245C31.2491 17.825 31.0063 17.5825 30.7071 17.5825Z" fill="white"/>
<path d="M30.7071 20.0161H22.8154C22.5159 20.0161 22.2734 20.2586 22.2734 20.5581C22.2734 20.8576 22.5159 21.1001 22.8154 21.1001H30.7071C31.0063 21.1001 31.2491 20.8576 31.2491 20.5581C31.2491 20.2586 31.0063 20.0161 30.7071 20.0161Z" fill="white"/>
<path d="M30.7071 22.4497H22.8154C22.5159 22.4497 22.2734 22.6922 22.2734 22.9917C22.2734 23.2912 22.5159 23.5337 22.8154 23.5337H30.7071C31.0063 23.5337 31.2491 23.2912 31.2491 22.9917C31.2491 22.6922 31.0063 22.4497 30.7071 22.4497Z" fill="white"/>
<path d="M35.1035 19.3581C35.1394 19.6554 35.4092 19.8668 35.7065 19.8315C36.0034 19.7957 36.2154 19.5258 36.1796 19.2285C35.5329 13.8569 30.478 9.94864 24.8765 11.0809C21.108 11.8425 18.3738 14.6425 17.5283 18.1152L16.8946 17.8699C16.8602 17.8566 16.8379 17.8239 16.8379 17.7872V16.2716C17.8973 15.4501 18.6309 14.2292 18.8122 12.8364C20.0938 12.752 21.0451 11.716 21.0451 10.4836C21.0451 9.91363 20.8387 9.36939 20.4712 8.94596V6.8799C20.4712 3.08624 17.3849 0 13.5913 0C9.79762 0 6.71137 3.08624 6.71137 6.8799V8.99987C5.43882 10.4361 6.40848 12.7069 8.37009 12.8364C8.54793 14.2171 9.27652 15.4987 10.457 16.3534V17.7643C10.457 17.8146 10.4257 17.8603 10.3791 17.8784C9.7245 18.1321 4.62556 20.1087 3.80467 20.4271C3.80128 20.4285 3.79789 20.43 3.7945 20.4314C3.67481 20.4805 0.867188 21.6723 0.867188 24.9519V35.2768C0.867188 36.2273 1.64037 36.9999 2.59027 36.9999H12.3266C12.6261 36.9999 12.8686 36.7574 12.8686 36.4579C12.8686 36.1584 12.6261 35.9159 12.3266 35.9159H6.36162V25.967C6.36162 25.6678 6.11885 25.425 5.81963 25.425C5.52012 25.425 5.27736 25.6678 5.27736 25.967V35.9159H2.59027C2.23797 35.9159 1.95117 35.6291 1.95117 35.2768V24.9519C1.95117 23.2884 3.03205 21.9351 4.20325 21.4352C4.74383 21.2257 8.6075 19.7279 9.45407 19.3996C9.95485 19.932 11.1938 21.493 13.5913 21.493C14.9852 21.493 16.2908 20.9234 17.2686 19.8885C17.145 22.4472 18.0635 25.0535 19.9532 26.988C20.4009 27.4468 20.4692 28.1731 20.1149 28.7151L19.6698 29.3962C19.2802 29.9924 19.8324 30.7442 20.5104 30.5708L20.9409 30.4605V35.9159H14.8562C14.5567 35.9159 14.3142 36.1584 14.3142 36.4579C14.3142 36.7574 14.5567 36.9999 14.8562 36.9999H24.7122C25.6621 36.9999 26.435 36.227 26.435 35.2768V29.8501C31.2367 30.0119 35.3528 26.5691 36.1217 21.9111C36.1706 21.6158 35.9707 21.3369 35.6751 21.2881C35.3799 21.2398 35.101 21.4394 35.0521 21.7347C34.3289 26.1138 30.3055 29.147 25.9385 28.7306C24.9211 28.6326 24.6199 28.3998 23.8321 28.6016L21.0126 29.3234L21.0225 29.3082C21.6523 28.3441 21.5286 27.0501 20.7286 26.2309C16.1606 21.5543 18.4576 13.4843 25.0914 12.1434C30.0754 11.1357 34.5327 14.6182 35.1035 19.3581ZM19.9611 10.4836C19.9611 11.0984 19.5187 11.6421 18.8571 11.7417V9.22542C19.5049 9.32168 19.9611 9.85774 19.9611 10.4836ZM8.32577 11.7417C7.66522 11.6426 7.22203 11.0998 7.22203 10.4836C7.22203 9.87722 7.72902 9.38265 8.32577 9.25224V11.7417ZM8.35287 8.14962C8.17193 8.16995 7.95654 8.2202 7.79564 8.27637V6.8799C7.79564 3.68413 10.3955 1.08398 13.5913 1.08398C16.7873 1.08398 19.3872 3.68413 19.3872 6.8799V8.23742C19.2167 8.18406 19.0391 8.14962 18.8571 8.13438C18.8571 7.8583 18.8613 7.74934 18.6321 7.46226C18.6315 7.46141 18.6307 7.46028 18.6298 7.45943C18.4212 7.19888 18.0449 6.81582 17.1097 5.81003H17.1094C16.7853 5.46169 16.2611 5.39846 15.8642 5.65788C13.9916 6.88131 11.6319 7.56783 9.37193 7.4058C8.89543 7.36995 8.46466 7.68724 8.35287 8.14962ZM9.41004 12.1632C9.41004 11.3674 9.41004 9.18364 9.41004 8.49458C11.7779 8.63742 14.3055 7.94694 16.3791 6.61624C17.1921 7.48935 17.635 7.94976 17.7731 8.12027V12.1632C17.7731 13.7155 16.8796 15.2139 15.3578 15.9086C12.708 17.1156 9.41004 15.272 9.41004 12.1632ZM16.487 19.1374C15.7152 19.9574 14.6868 20.4091 13.5913 20.4091C12.3023 20.4091 11.3691 19.853 10.5445 18.977L10.7709 18.8892C11.2316 18.7105 11.541 18.2586 11.541 17.7646V16.9558C12.7966 17.4671 14.3588 17.5368 15.7536 16.92V17.7872C15.7536 18.2676 16.0548 18.7072 16.5031 18.8808L16.6679 18.9448L16.487 19.1374ZM22.0249 30.183L24.1005 29.6517C24.522 29.5444 24.7091 29.6557 25.3511 29.7508V35.2768C25.3511 35.6291 25.0643 35.9159 24.712 35.9159H22.0249V30.183Z" fill="white"/>
</svg>
